# xmcd
#
# Track frame offsets:
#	150
#	12944
#	28094
#	38623
#	53133
#	66857
#	77690
#	92391
#	107557
#	123013
# Disc length: 1833 seconds
# Revision: 3
# Processed by: cddbd v1.5.1PL0 Copyright (c) Steve Scherf et al.
#
# Submitted via: libkcddb 0.10
#
DISCID=6c07270a
DTITLE=Sammy Davis Jnr - Sings Country Classics
DYEAR=1900
DGENRE=
TTITLE0=What I've got in mind
TTITLE1=Come sundown
TTITLE2=Mention a mansion
TTITLE3=You're gonna love yourself
TTITLE4=Smoke smoke smoke
TTITLE5=Oh lonesome me
TTITLE6=We could have been the closest of friends
TTITLE7=Hey won't you play
TTITLE8=Please don't tell me how the story ends
TTITLE9=The river's too wide
EXTD=
EXTT0=
EXTT1=
EXTT2=
EXTT3=
EXTT4=
EXTT5=
EXTT6=
EXTT7=
EXTT8=
EXTT9=
PLAYORDER=
